<svg xmlns="http://www.w3.org/2000/svg" version="1.1" width = "515" height = "515" viewBox = "-1 -1 514 514" preserveAspectRatio = "none" shape-rendering="crispEdges">
<rect x="0" y="0" width="512" height="512" style="fill:rgb(0,0,0);" />
<rect x="0" y="0" width="512" height="512" style="fill:rgb(229,229,229);" />
<g style="fill:rgb(0,0,0);">
 <rect x="0" y="0" width="1" height="512"/>
 <rect x="1" y="0" width="511" height="1"/>
 <rect x="119" y="1" width="1" height="51"/>
 <rect x="170" y="1" width="1" height="17"/>
 <rect x="204" y="1" width="1" height="17"/>
 <rect x="238" y="1" width="1" height="17"/>
 <rect x="272" y="1" width="1" height="34"/>
 <rect x="323" y="1" width="1" height="17"/>
 <rect x="340" y="1" width="1" height="17"/>
 <rect x="357" y="1" width="1" height="17"/>
 <rect x="391" y="1" width="1" height="17"/>
 <rect x="442" y="1" width="1" height="17"/>
 <rect x="459" y="1" width="1" height="34"/>
 <rect x="17" y="17" width="1" height="35"/>
 <rect x="18" y="17" width="17" height="1"/>
 <rect x="51" y="17" width="1" height="18"/>
 <rect x="52" y="17" width="51" height="1"/>
 <rect x="120" y="17" width="17" height="1"/>
 <rect x="153" y="17" width="1" height="18"/>
 <rect x="187" y="17" width="1" height="103"/>
 <rect x="221" y="17" width="1" height="18"/>
 <rect x="222" y="17" width="17" height="1"/>
 <rect x="255" y="17" width="1" height="18"/>
 <rect x="289" y="17" width="1" height="35"/>
 <rect x="306" y="17" width="1" height="18"/>
 <rect x="358" y="17" width="17" height="1"/>
 <rect x="408" y="17" width="1" height="18"/>
 <rect x="425" y="17" width="1" height="35"/>
 <rect x="460" y="17" width="51" height="1"/>
 <rect x="34" y="18" width="1" height="17"/>
 <rect x="102" y="18" width="1" height="51"/>
 <rect x="374" y="18" width="1" height="51"/>
 <rect x="476" y="18" width="1" height="17"/>
 <rect x="68" y="34" width="18" height="1"/>
 <rect x="136" y="34" width="52" height="1"/>
 <rect x="204" y="34" width="1" height="52"/>
 <rect x="205" y="34" width="17" height="1"/>
 <rect x="238" y="34" width="1" height="18"/>
 <rect x="239" y="34" width="17" height="1"/>
 <rect x="290" y="34" width="68" height="1"/>
 <rect x="391" y="34" width="1" height="69"/>
 <rect x="392" y="34" width="17" height="1"/>
 <rect x="426" y="34" width="34" height="1"/>
 <rect x="493" y="34" width="19" height="1"/>
 <rect x="85" y="35" width="1" height="17"/>
 <rect x="323" y="35" width="1" height="17"/>
 <rect x="510" y="35" width="1" height="51"/>
 <rect x="18" y="51" width="85" height="1"/>
 <rect x="120" y="51" width="34" height="1"/>
 <rect x="170" y="51" width="1" height="18"/>
 <rect x="221" y="51" width="1" height="52"/>
 <rect x="222" y="51" width="17" height="1"/>
 <rect x="255" y="51" width="1" height="18"/>
 <rect x="256" y="51" width="34" height="1"/>
 <rect x="306" y="51" width="35" height="1"/>
 <rect x="357" y="51" width="18" height="1"/>
 <rect x="408" y="51" width="18" height="1"/>
 <rect x="442" y="51" width="1" height="18"/>
 <rect x="443" y="51" width="51" height="1"/>
 <rect x="68" y="52" width="1" height="34"/>
 <rect x="153" y="52" width="1" height="17"/>
 <rect x="272" y="52" width="1" height="34"/>
 <rect x="340" y="52" width="1" height="51"/>
 <rect x="476" y="52" width="1" height="17"/>
 <rect x="1" y="68" width="34" height="1"/>
 <rect x="51" y="68" width="1" height="18"/>
 <rect x="69" y="68" width="17" height="1"/>
 <rect x="119" y="68" width="1" height="18"/>
 <rect x="120" y="68" width="17" height="1"/>
 <rect x="154" y="68" width="17" height="1"/>
 <rect x="222" y="68" width="34" height="1"/>
 <rect x="289" y="68" width="35" height="1"/>
 <rect x="341" y="68" width="17" height="1"/>
 <rect x="375" y="68" width="17" height="1"/>
 <rect x="408" y="68" width="35" height="1"/>
 <rect x="459" y="68" width="1" height="18"/>
 <rect x="460" y="68" width="17" height="1"/>
 <rect x="493" y="68" width="1" height="35"/>
 <rect x="17" y="69" width="1" height="34"/>
 <rect x="306" y="69" width="1" height="17"/>
 <rect x="357" y="69" width="1" height="17"/>
 <rect x="18" y="85" width="34" height="1"/>
 <rect x="69" y="85" width="102" height="1"/>
 <rect x="188" y="85" width="17" height="1"/>
 <rect x="238" y="85" width="35" height="1"/>
 <rect x="289" y="85" width="1" height="18"/>
 <rect x="290" y="85" width="17" height="1"/>
 <rect x="323" y="85" width="1" height="35"/>
 <rect x="358" y="85" width="17" height="1"/>
 <rect x="392" y="85" width="34" height="1"/>
 <rect x="442" y="85" width="1" height="18"/>
 <rect x="443" y="85" width="17" height="1"/>
 <rect x="476" y="85" width="1" height="18"/>
 <rect x="477" y="85" width="17" height="1"/>
 <rect x="153" y="86" width="1" height="17"/>
 <rect x="255" y="86" width="1" height="68"/>
 <rect x="374" y="86" width="1" height="34"/>
 <rect x="425" y="86" width="1" height="17"/>
 <rect x="18" y="102" width="34" height="1"/>
 <rect x="68" y="102" width="52" height="1"/>
 <rect x="136" y="102" width="1" height="35"/>
 <rect x="137" y="102" width="34" height="1"/>
 <rect x="204" y="102" width="35" height="1"/>
 <rect x="256" y="102" width="34" height="1"/>
 <rect x="306" y="102" width="1" height="18"/>
 <rect x="307" y="102" width="17" height="1"/>
 <rect x="341" y="102" width="17" height="1"/>
 <rect x="408" y="102" width="1" height="18"/>
 <rect x="426" y="102" width="17" height="1"/>
 <rect x="459" y="102" width="1" height="35"/>
 <rect x="460" y="102" width="17" height="1"/>
 <rect x="510" y="102" width="1" height="18"/>
 <rect x="511" y="102" width="1" height="1"/>
 <rect x="51" y="103" width="1" height="17"/>
 <rect x="119" y="103" width="1" height="17"/>
 <rect x="238" y="103" width="1" height="17"/>
 <rect x="1" y="119" width="17" height="1"/>
 <rect x="34" y="119" width="1" height="35"/>
 <rect x="52" y="119" width="68" height="1"/>
 <rect x="153" y="119" width="52" height="1"/>
 <rect x="221" y="119" width="1" height="52"/>
 <rect x="222" y="119" width="17" height="1"/>
 <rect x="256" y="119" width="17" height="1"/>
 <rect x="289" y="119" width="18" height="1"/>
 <rect x="324" y="119" width="102" height="1"/>
 <rect x="442" y="119" width="69" height="1"/>
 <rect x="102" y="120" width="1" height="17"/>
 <rect x="170" y="120" width="1" height="17"/>
 <rect x="1" y="136" width="17" height="1"/>
 <rect x="35" y="136" width="51" height="1"/>
 <rect x="119" y="136" width="1" height="35"/>
 <rect x="120" y="136" width="17" height="1"/>
 <rect x="153" y="136" width="1" height="35"/>
 <rect x="154" y="136" width="17" height="1"/>
 <rect x="187" y="136" width="1" height="52"/>
 <rect x="204" y="136" width="18" height="1"/>
 <rect x="238" y="136" width="18" height="1"/>
 <rect x="272" y="136" width="1" height="18"/>
 <rect x="273" y="136" width="136" height="1"/>
 <rect x="425" y="136" width="1" height="18"/>
 <rect x="426" y="136" width="34" height="1"/>
 <rect x="476" y="136" width="18" height="1"/>
 <rect x="510" y="136" width="1" height="18"/>
 <rect x="85" y="137" width="1" height="34"/>
 <rect x="408" y="137" width="1" height="34"/>
 <rect x="442" y="137" width="1" height="34"/>
 <rect x="493" y="137" width="1" height="34"/>
 <rect x="17" y="153" width="1" height="18"/>
 <rect x="18" y="153" width="17" height="1"/>
 <rect x="51" y="153" width="1" height="18"/>
 <rect x="52" y="153" width="17" height="1"/>
 <rect x="86" y="153" width="17" height="1"/>
 <rect x="120" y="153" width="34" height="1"/>
 <rect x="170" y="153" width="18" height="1"/>
 <rect x="204" y="153" width="35" height="1"/>
 <rect x="256" y="153" width="17" height="1"/>
 <rect x="289" y="153" width="103" height="1"/>
 <rect x="459" y="153" width="52" height="1"/>
 <rect x="68" y="154" width="1" height="34"/>
 <rect x="238" y="154" width="1" height="17"/>
 <rect x="323" y="154" width="1" height="17"/>
 <rect x="18" y="170" width="17" height="1"/>
 <rect x="86" y="170" width="34" height="1"/>
 <rect x="136" y="170" width="1" height="18"/>
 <rect x="154" y="170" width="17" height="1"/>
 <rect x="204" y="170" width="1" height="18"/>
 <rect x="239" y="170" width="85" height="1"/>
 <rect x="340" y="170" width="69" height="1"/>
 <rect x="425" y="170" width="1" height="18"/>
 <rect x="426" y="170" width="51" height="1"/>
 <rect x="494" y="170" width="17" height="1"/>
 <rect x="34" y="171" width="1" height="17"/>
 <rect x="170" y="171" width="1" height="34"/>
 <rect x="255" y="171" width="1" height="34"/>
 <rect x="306" y="171" width="1" height="34"/>
 <rect x="391" y="171" width="1" height="34"/>
 <rect x="510" y="171" width="1" height="17"/>
 <rect x="17" y="187" width="35" height="1"/>
 <rect x="69" y="187" width="68" height="1"/>
 <rect x="153" y="187" width="1" height="18"/>
 <rect x="188" y="187" width="68" height="1"/>
 <rect x="272" y="187" width="1" height="18"/>
 <rect x="273" y="187" width="17" height="1"/>
 <rect x="307" y="187" width="51" height="1"/>
 <rect x="374" y="187" width="1" height="35"/>
 <rect x="392" y="187" width="34" height="1"/>
 <rect x="442" y="187" width="1" height="35"/>
 <rect x="459" y="187" width="35" height="1"/>
 <rect x="511" y="187" width="1" height="1"/>
 <rect x="85" y="188" width="1" height="17"/>
 <rect x="119" y="188" width="1" height="34"/>
 <rect x="493" y="188" width="1" height="17"/>
 <rect x="17" y="204" width="1" height="18"/>
 <rect x="18" y="204" width="51" height="1"/>
 <rect x="86" y="204" width="17" height="1"/>
 <rect x="136" y="204" width="35" height="1"/>
 <rect x="187" y="204" width="1" height="35"/>
 <rect x="188" y="204" width="17" height="1"/>
 <rect x="221" y="204" width="1" height="18"/>
 <rect x="238" y="204" width="1" height="35"/>
 <rect x="239" y="204" width="17" height="1"/>
 <rect x="273" y="204" width="17" height="1"/>
 <rect x="323" y="204" width="1" height="18"/>
 <rect x="324" y="204" width="17" height="1"/>
 <rect x="357" y="204" width="1" height="52"/>
 <rect x="358" y="204" width="17" height="1"/>
 <rect x="408" y="204" width="1" height="35"/>
 <rect x="409" y="204" width="102" height="1"/>
 <rect x="34" y="205" width="1" height="17"/>
 <rect x="289" y="205" width="1" height="17"/>
 <rect x="340" y="205" width="1" height="51"/>
 <rect x="510" y="205" width="1" height="17"/>
 <rect x="1" y="221" width="17" height="1"/>
 <rect x="35" y="221" width="68" height="1"/>
 <rect x="120" y="221" width="68" height="1"/>
 <rect x="204" y="221" width="1" height="52"/>
 <rect x="205" y="221" width="17" height="1"/>
 <rect x="239" y="221" width="17" height="1"/>
 <rect x="272" y="221" width="1" height="18"/>
 <rect x="290" y="221" width="34" height="1"/>
 <rect x="375" y="221" width="34" height="1"/>
 <rect x="425" y="221" width="1" height="35"/>
 <rect x="459" y="221" width="1" height="18"/>
 <rect x="460" y="221" width="34" height="1"/>
 <rect x="51" y="222" width="1" height="68"/>
 <rect x="85" y="222" width="1" height="17"/>
 <rect x="306" y="222" width="1" height="34"/>
 <rect x="493" y="222" width="1" height="85"/>
 <rect x="17" y="238" width="18" height="1"/>
 <rect x="68" y="238" width="1" height="35"/>
 <rect x="86" y="238" width="34" height="1"/>
 <rect x="136" y="238" width="1" height="18"/>
 <rect x="137" y="238" width="51" height="1"/>
 <rect x="205" y="238" width="34" height="1"/>
 <rect x="255" y="238" width="1" height="35"/>
 <rect x="273" y="238" width="34" height="1"/>
 <rect x="323" y="238" width="18" height="1"/>
 <rect x="374" y="238" width="1" height="18"/>
 <rect x="391" y="238" width="1" height="35"/>
 <rect x="392" y="238" width="17" height="1"/>
 <rect x="426" y="238" width="17" height="1"/>
 <rect x="476" y="238" width="36" height="1"/>
 <rect x="34" y="239" width="1" height="51"/>
 <rect x="119" y="239" width="1" height="17"/>
 <rect x="442" y="239" width="1" height="51"/>
 <rect x="1" y="255" width="17" height="1"/>
 <rect x="69" y="255" width="34" height="1"/>
 <rect x="120" y="255" width="17" height="1"/>
 <rect x="153" y="255" width="1" height="18"/>
 <rect x="154" y="255" width="17" height="1"/>
 <rect x="187" y="255" width="18" height="1"/>
 <rect x="221" y="255" width="1" height="52"/>
 <rect x="238" y="255" width="1" height="18"/>
 <rect x="256" y="255" width="17" height="1"/>
 <rect x="289" y="255" width="1" height="18"/>
 <rect x="307" y="255" width="17" height="1"/>
 <rect x="358" y="255" width="17" height="1"/>
 <rect x="408" y="255" width="18" height="1"/>
 <rect x="443" y="255" width="34" height="1"/>
 <rect x="494" y="255" width="17" height="1"/>
 <rect x="170" y="256" width="1" height="17"/>
 <rect x="272" y="256" width="1" height="85"/>
 <rect x="323" y="256" width="1" height="51"/>
 <rect x="476" y="256" width="1" height="68"/>
 <rect x="17" y="272" width="1" height="52"/>
 <rect x="18" y="272" width="17" height="1"/>
 <rect x="69" y="272" width="85" height="1"/>
 <rect x="171" y="272" width="34" height="1"/>
 <rect x="239" y="272" width="17" height="1"/>
 <rect x="290" y="272" width="17" height="1"/>
 <rect x="340" y="272" width="1" height="120"/>
 <rect x="341" y="272" width="85" height="1"/>
 <rect x="459" y="272" width="1" height="35"/>
 <rect x="494" y="272" width="17" height="1"/>
 <rect x="85" y="273" width="1" height="68"/>
 <rect x="187" y="273" width="1" height="17"/>
 <rect x="306" y="273" width="1" height="102"/>
 <rect x="425" y="273" width="1" height="51"/>
 <rect x="52" y="289" width="17" height="1"/>
 <rect x="102" y="289" width="1" height="35"/>
 <rect x="119" y="289" width="1" height="18"/>
 <rect x="120" y="289" width="17" height="1"/>
 <rect x="153" y="289" width="52" height="1"/>
 <rect x="238" y="289" width="1" height="18"/>
 <rect x="239" y="289" width="51" height="1"/>
 <rect x="324" y="289" width="17" height="1"/>
 <rect x="357" y="289" width="52" height="1"/>
 <rect x="510" y="289" width="1" height="52"/>
 <rect x="374" y="290" width="1" height="34"/>
 <rect x="34" y="306" width="1" height="18"/>
 <rect x="35" y="306" width="51" height="1"/>
 <rect x="103" y="306" width="153" height="1"/>
 <rect x="273" y="306" width="17" height="1"/>
 <rect x="341" y="306" width="17" height="1"/>
 <rect x="391" y="306" width="1" height="18"/>
 <rect x="408" y="306" width="52" height="1"/>
 <rect x="187" y="307" width="1" height="51"/>
 <rect x="255" y="307" width="1" height="34"/>
 <rect x="18" y="323" width="17" height="1"/>
 <rect x="51" y="323" width="1" height="35"/>
 <rect x="52" y="323" width="17" height="1"/>
 <rect x="103" y="323" width="68" height="1"/>
 <rect x="204" y="323" width="1" height="18"/>
 <rect x="205" y="323" width="34" height="1"/>
 <rect x="289" y="323" width="1" height="18"/>
 <rect x="323" y="323" width="1" height="18"/>
 <rect x="324" y="323" width="17" height="1"/>
 <rect x="357" y="323" width="69" height="1"/>
 <rect x="442" y="323" width="1" height="35"/>
 <rect x="443" y="323" width="68" height="1"/>
 <rect x="221" y="324" width="1" height="51"/>
 <rect x="17" y="340" width="1" height="18"/>
 <rect x="18" y="340" width="34" height="1"/>
 <rect x="68" y="340" width="1" height="18"/>
 <rect x="86" y="340" width="51" height="1"/>
 <rect x="153" y="340" width="1" height="52"/>
 <rect x="154" y="340" width="17" height="1"/>
 <rect x="238" y="340" width="18" height="1"/>
 <rect x="273" y="340" width="34" height="1"/>
 <rect x="341" y="340" width="102" height="1"/>
 <rect x="459" y="340" width="1" height="18"/>
 <rect x="476" y="340" width="1" height="18"/>
 <rect x="493" y="340" width="18" height="1"/>
 <rect x="136" y="341" width="1" height="68"/>
 <rect x="1" y="357" width="17" height="1"/>
 <rect x="34" y="357" width="1" height="86"/>
 <rect x="35" y="357" width="17" height="1"/>
 <rect x="69" y="357" width="17" height="1"/>
 <rect x="102" y="357" width="1" height="18"/>
 <rect x="103" y="357" width="34" height="1"/>
 <rect x="154" y="357" width="34" height="1"/>
 <rect x="204" y="357" width="86" height="1"/>
 <rect x="323" y="357" width="1" height="18"/>
 <rect x="341" y="357" width="34" height="1"/>
 <rect x="391" y="357" width="1" height="18"/>
 <rect x="408" y="357" width="1" height="35"/>
 <rect x="425" y="357" width="1" height="18"/>
 <rect x="426" y="357" width="17" height="1"/>
 <rect x="460" y="357" width="34" height="1"/>
 <rect x="510" y="357" width="2" height="1"/>
 <rect x="85" y="358" width="1" height="17"/>
 <rect x="493" y="358" width="1" height="17"/>
 <rect x="17" y="374" width="18" height="1"/>
 <rect x="51" y="374" width="52" height="1"/>
 <rect x="119" y="374" width="1" height="18"/>
 <rect x="154" y="374" width="68" height="1"/>
 <rect x="238" y="374" width="1" height="18"/>
 <rect x="255" y="374" width="1" height="18"/>
 <rect x="256" y="374" width="17" height="1"/>
 <rect x="289" y="374" width="1" height="18"/>
 <rect x="290" y="374" width="34" height="1"/>
 <rect x="357" y="374" width="35" height="1"/>
 <rect x="409" y="374" width="51" height="1"/>
 <rect x="476" y="374" width="1" height="18"/>
 <rect x="477" y="374" width="34" height="1"/>
 <rect x="170" y="375" width="1" height="17"/>
 <rect x="374" y="375" width="1" height="34"/>
 <rect x="442" y="375" width="1" height="51"/>
 <rect x="1" y="391" width="17" height="1"/>
 <rect x="35" y="391" width="85" height="1"/>
 <rect x="187" y="391" width="1" height="18"/>
 <rect x="204" y="391" width="1" height="18"/>
 <rect x="205" y="391" width="102" height="1"/>
 <rect x="323" y="391" width="1" height="52"/>
 <rect x="324" y="391" width="34" height="1"/>
 <rect x="375" y="391" width="34" height="1"/>
 <rect x="425" y="391" width="1" height="52"/>
 <rect x="443" y="391" width="17" height="1"/>
 <rect x="477" y="391" width="17" height="1"/>
 <rect x="510" y="391" width="2" height="1"/>
 <rect x="68" y="392" width="1" height="17"/>
 <rect x="102" y="392" width="1" height="17"/>
 <rect x="272" y="392" width="1" height="68"/>
 <rect x="306" y="392" width="1" height="17"/>
 <rect x="459" y="392" width="1" height="17"/>
 <rect x="493" y="392" width="1" height="85"/>
 <rect x="17" y="408" width="18" height="1"/>
 <rect x="51" y="408" width="1" height="18"/>
 <rect x="85" y="408" width="18" height="1"/>
 <rect x="119" y="408" width="1" height="18"/>
 <rect x="137" y="408" width="51" height="1"/>
 <rect x="221" y="408" width="1" height="52"/>
 <rect x="222" y="408" width="34" height="1"/>
 <rect x="273" y="408" width="17" height="1"/>
 <rect x="340" y="408" width="35" height="1"/>
 <rect x="391" y="408" width="1" height="35"/>
 <rect x="392" y="408" width="17" height="1"/>
 <rect x="460" y="408" width="17" height="1"/>
 <rect x="510" y="408" width="2" height="1"/>
 <rect x="170" y="409" width="1" height="51"/>
 <rect x="289" y="409" width="1" height="17"/>
 <rect x="476" y="409" width="1" height="102"/>
 <rect x="17" y="425" width="1" height="86"/>
 <rect x="52" y="425" width="119" height="1"/>
 <rect x="187" y="425" width="35" height="1"/>
 <rect x="238" y="425" width="1" height="18"/>
 <rect x="239" y="425" width="34" height="1"/>
 <rect x="290" y="425" width="17" height="1"/>
 <rect x="324" y="425" width="51" height="1"/>
 <rect x="408" y="425" width="18" height="1"/>
 <rect x="443" y="425" width="17" height="1"/>
 <rect x="510" y="425" width="2" height="1"/>
 <rect x="306" y="426" width="1" height="17"/>
 <rect x="357" y="426" width="1" height="51"/>
 <rect x="35" y="442" width="17" height="1"/>
 <rect x="68" y="442" width="18" height="1"/>
 <rect x="102" y="442" width="1" height="18"/>
 <rect x="103" y="442" width="51" height="1"/>
 <rect x="187" y="442" width="1" height="35"/>
 <rect x="188" y="442" width="17" height="1"/>
 <rect x="255" y="442" width="1" height="35"/>
 <rect x="289" y="442" width="1" height="52"/>
 <rect x="307" y="442" width="17" height="1"/>
 <rect x="340" y="442" width="1" height="35"/>
 <rect x="374" y="442" width="103" height="1"/>
 <rect x="494" y="442" width="18" height="1"/>
 <rect x="51" y="443" width="1" height="17"/>
 <rect x="85" y="443" width="1" height="34"/>
 <rect x="136" y="443" width="1" height="34"/>
 <rect x="408" y="443" width="1" height="17"/>
 <rect x="34" y="459" width="1" height="18"/>
 <rect x="52" y="459" width="68" height="1"/>
 <rect x="153" y="459" width="18" height="1"/>
 <rect x="204" y="459" width="52" height="1"/>
 <rect x="273" y="459" width="17" height="1"/>
 <rect x="306" y="459" width="18" height="1"/>
 <rect x="358" y="459" width="34" height="1"/>
 <rect x="425" y="459" width="1" height="18"/>
 <rect x="426" y="459" width="34" height="1"/>
 <rect x="510" y="459" width="2" height="1"/>
 <rect x="238" y="460" width="1" height="17"/>
 <rect x="323" y="460" width="1" height="17"/>
 <rect x="442" y="460" width="1" height="34"/>
 <rect x="35" y="476" width="17" height="1"/>
 <rect x="68" y="476" width="1" height="35"/>
 <rect x="69" y="476" width="17" height="1"/>
 <rect x="102" y="476" width="120" height="1"/>
 <rect x="256" y="476" width="17" height="1"/>
 <rect x="306" y="476" width="1" height="35"/>
 <rect x="307" y="476" width="34" height="1"/>
 <rect x="358" y="476" width="17" height="1"/>
 <rect x="391" y="476" width="1" height="18"/>
 <rect x="392" y="476" width="17" height="1"/>
 <rect x="459" y="476" width="1" height="35"/>
 <rect x="494" y="476" width="17" height="1"/>
 <rect x="51" y="477" width="1" height="17"/>
 <rect x="119" y="477" width="1" height="17"/>
 <rect x="221" y="477" width="1" height="17"/>
 <rect x="272" y="477" width="1" height="34"/>
 <rect x="374" y="477" width="1" height="17"/>
 <rect x="510" y="477" width="1" height="34"/>
 <rect x="34" y="493" width="1" height="18"/>
 <rect x="52" y="493" width="51" height="1"/>
 <rect x="120" y="493" width="17" height="1"/>
 <rect x="153" y="493" width="18" height="1"/>
 <rect x="187" y="493" width="52" height="1"/>
 <rect x="255" y="493" width="1" height="18"/>
 <rect x="256" y="493" width="17" height="1"/>
 <rect x="307" y="493" width="102" height="1"/>
 <rect x="425" y="493" width="1" height="18"/>
 <rect x="426" y="493" width="17" height="1"/>
 <rect x="477" y="493" width="17" height="1"/>
 <rect x="136" y="494" width="1" height="17"/>
 <rect x="170" y="494" width="1" height="17"/>
 <rect x="238" y="494" width="1" height="17"/>
 <rect x="1" y="510" width="17" height="1"/>
 <rect x="35" y="510" width="34" height="1"/>
 <rect x="85" y="510" width="1" height="2"/>
 <rect x="102" y="510" width="52" height="1"/>
 <rect x="171" y="510" width="51" height="1"/>
 <rect x="239" y="510" width="17" height="1"/>
 <rect x="273" y="510" width="34" height="1"/>
 <rect x="323" y="510" width="120" height="1"/>
 <rect x="460" y="510" width="17" height="1"/>
 <rect x="493" y="510" width="18" height="1"/>
 <rect x="221" y="511" width="1" height="1"/>
 <rect x="442" y="511" width="1" height="1"/>
</g>

</svg>